<?xml version="1.0" encoding="UTF-8" standalone="no"?>
<!-- Created with Inkscape (http://www.inkscape.org/) -->
<svg
   xmlns:dc="http://purl.org/dc/elements/1.1/"
   xmlns:cc="http://creativecommons.org/ns#"
   xmlns:rdf="http://www.w3.org/1999/02/22-rdf-syntax-ns#"
   xmlns:svg="http://www.w3.org/2000/svg"
   xmlns="http://www.w3.org/2000/svg"
   xmlns:sodipodi="http://sodipodi.sourceforge.net/DTD/sodipodi-0.dtd"
   xmlns:inkscape="http://www.inkscape.org/namespaces/inkscape"
   width="140.36626"
   height="53.0825"
   id="svg3392"
   sodipodi:version="0.32"
   inkscape:version="0.46"
   version="1.0"
   sodipodi:docname="Université Toulouse 3.svg"
   inkscape:output_extension="org.inkscape.output.svg.inkscape">
  <defs
     id="defs3394">
    <clipPath
       clipPathUnits="userSpaceOnUse"
       id="clipPath749">
      <path
         d="M 325.984,24.573 L 438.277,24.573 L 438.277,67.04 L 325.984,67.04 L 325.984,24.573 z"
         id="path751" />
    </clipPath>
    <radialGradient
       fx="0"
       fy="0"
       cx="0"
       cy="0"
       r="1"
       gradientUnits="userSpaceOnUse"
       gradientTransform="matrix(10.375519,3.695755,4.75,-11.131027,344.74953,45.587433)"
       spreadMethod="pad"
       id="radialGradient769">
      <stop
         style="stop-opacity:1;stop-color:#ffffff"
         offset="0"
         id="stop771" />
      <stop
         style="stop-opacity:1;stop-color:#fcd26c"
         offset="1"
         id="stop773" />
    </radialGradient>
    <radialGradient
       fx="0"
       fy="0"
       cx="0"
       cy="0"
       r="1"
       gradientUnits="userSpaceOnUse"
       gradientTransform="matrix(10.366226,3.6924286,4.7457733,-11.121078,354.45576,45.796783)"
       spreadMethod="pad"
       id="radialGradient789">
      <stop
         style="stop-opacity:1;stop-color:#ffffff"
         offset="0"
         id="stop791" />
      <stop
         style="stop-opacity:1;stop-color:#fcd26c"
         offset="1"
         id="stop793" />
    </radialGradient>
    <linearGradient
       x1="0"
       y1="0"
       x2="1"
       y2="0"
       gradientUnits="userSpaceOnUse"
       gradientTransform="matrix(35.174637,12.529099,16.103256,-37.735916,332.00287,39.41774)"
       spreadMethod="pad"
       id="linearGradient809">
      <stop
         style="stop-opacity:1;stop-color:#fee9ba"
         offset="0"
         id="stop811" />
      <stop
         style="stop-opacity:1;stop-color:#fbbe1f"
         offset="0.848312"
         id="stop813" />
      <stop
         style="stop-opacity:1;stop-color:#fbbe1f"
         offset="0.848312"
         id="stop815" />
      <stop
         style="stop-opacity:1;stop-color:#fdd46e"
         offset="1"
         id="stop817" />
    </linearGradient>
    <radialGradient
       fx="0"
       fy="0"
       cx="0"
       cy="0"
       r="1"
       gradientUnits="userSpaceOnUse"
       gradientTransform="matrix(15.5551,5.5407104,7.1212921,-16.68779,349.60741,45.658173)"
       spreadMethod="pad"
       id="radialGradient833">
      <stop
         style="stop-opacity:1;stop-color:#feedc2"
         offset="0"
         id="stop835" />
      <stop
         style="stop-opacity:1;stop-color:#fbc43f"
         offset="0.870789"
         id="stop837" />
      <stop
         style="stop-opacity:1;stop-color:#fbc43f"
         offset="0.870789"
         id="stop839" />
      <stop
         style="stop-opacity:1;stop-color:#fddc8c"
         offset="1"
         id="stop841" />
    </radialGradient>
    <clipPath
       clipPathUnits="userSpaceOnUse"
       id="clipPath849">
      <path
         d="M 325.984,24.573 L 438.277,24.573 L 438.277,67.04 L 325.984,67.04 L 325.984,24.573 z"
         id="path851" />
    </clipPath>
    <inkscape:perspective
       sodipodi:type="inkscape:persp3d"
       inkscape:vp_x="0 : 526.18109 : 1"
       inkscape:vp_y="0 : 1000 : 0"
       inkscape:vp_z="744.09448 : 526.18109 : 1"
       inkscape:persp3d-origin="372.04724 : 350.78739 : 1"
       id="perspective3400" />
  </defs>
  <sodipodi:namedview
     id="base"
     pagecolor="#ffffff"
     bordercolor="#666666"
     borderopacity="1.0"
     inkscape:pageopacity="0.0"
     inkscape:pageshadow="2"
     inkscape:zoom="6.6112759"
     inkscape:cx="70.183125"
     inkscape:cy="26.54125"
     inkscape:document-units="px"
     inkscape:current-layer="layer1"
     showgrid="false"
     inkscape:window-width="1024"
     inkscape:window-height="712"
     inkscape:window-x="-4"
     inkscape:window-y="-4" />
  <metadata
     id="metadata3397">
    <rdf:RDF>
      <cc:Work
         rdf:about="">
        <dc:format>image/svg+xml</dc:format>
        <dc:type
           rdf:resource="http://purl.org/dc/dcmitype/StillImage" />
      </cc:Work>
    </rdf:RDF>
  </metadata>
  <g
     inkscape:label="Calque 1"
     inkscape:groupmode="layer"
     id="layer1"
     transform="translate(-181.24545,-408.67808)">
    <g
       transform="matrix(1.25,0,0,-1.25,-226.23455,492.47683)"
       id="g745">
      <g
         id="g747"
         clip-path="url(#clipPath749)">
        <path
           d="M 326.299,66.724 L 437.963,66.724 L 437.963,24.887 L 326.299,24.887 L 326.299,66.724 z"
           style="fill:none;stroke:#c02229;stroke-width:0.63;stroke-linecap:butt;stroke-linejoin:miter;stroke-miterlimit:4;stroke-dasharray:none;stroke-opacity:1"
           id="path753" />
      </g>
    </g>
    <path
       d="M 181.6392,409.07433 L 239.8142,409.07433 L 239.8142,461.36433 L 181.6392,461.36433 L 181.6392,409.07433 z"
       style="fill:#c02229;fill-opacity:1;fill-rule:nonzero;stroke:none"
       id="path755" />
    <g
       transform="matrix(1.25,0,0,-1.25,-226.23455,492.47683)"
       id="g757">
      <g
         id="g759">
        <g
           id="g765">
          <g
             id="g767">
            <path
               d="M 343.124,58.391 C 335.557,55.164 332.301,46.837 335.866,39.829 L 335.866,39.829 C 337.636,36.353 340.797,33.742 344.768,32.48 L 344.768,32.48 L 345.214,32.338 L 345.217,38.728 L 351.562,38.59 C 352.971,38.568 354.128,39.602 354.14,40.896 L 354.14,40.896 C 354.153,42.191 353.015,43.262 351.605,43.286 L 351.605,43.286 C 351.602,43.286 345.569,43.327 345.569,43.327 L 345.569,43.327 L 345.573,43.327 C 342.042,43.384 339.195,46.064 339.225,49.303 L 339.225,49.303 C 339.256,52.541 342.152,55.13 345.682,55.074 L 345.682,55.074 L 350.034,54.973 L 350.117,59.663 C 350.118,59.667 349.735,59.674 349.735,59.674 L 349.735,59.674 C 349.637,59.676 349.538,59.677 349.439,59.677 L 349.439,59.677 C 347.249,59.677 345.126,59.245 343.124,58.391 M 336.483,40.092 C 333.077,46.786 336.188,54.739 343.415,57.82 L 343.415,57.82 C 345.413,58.673 347.219,58.989 349.546,59.015 L 349.546,59.015 L 349.445,55.653 L 345.688,55.702 C 341.782,55.764 338.577,52.898 338.544,49.314 L 338.544,49.314 C 338.511,45.728 341.661,42.761 345.568,42.699 L 345.568,42.699 L 345.5,42.699 L 351.603,42.656 C 352.633,42.64 353.468,41.855 353.459,40.908 L 353.459,40.908 C 353.45,39.959 352.601,39.202 351.568,39.217 L 351.568,39.217 L 344.579,39.332 L 344.543,33.224 C 340.751,34.43 338.172,36.772 336.483,40.092"
               style="fill:url(#radialGradient769);stroke:none"
               id="path775" />
          </g>
        </g>
      </g>
    </g>
    <g
       transform="matrix(1.25,0,0,-1.25,-226.23455,492.47683)"
       id="g777">
      <g
         id="g779">
        <g
           id="g785">
          <g
             id="g787">
            <path
               d="M 353.938,51.432 L 345.651,51.548 C 344.24,51.571 343.083,50.536 343.071,49.242 L 343.071,49.242 C 343.066,48.616 343.325,48.024 343.8,47.572 L 343.8,47.572 C 344.28,47.12 344.921,46.864 345.606,46.853 L 345.606,46.853 L 351.638,46.756 C 355.168,46.699 358.016,44.043 357.986,40.834 L 357.986,40.834 C 357.97,39.271 357.296,37.812 356.084,36.722 L 356.084,36.722 C 354.863,35.626 353.245,35.037 351.529,35.064 L 351.529,35.064 C 351.522,35.064 349.497,35.055 349.497,35.055 L 349.497,35.055 L 349.163,35.054 L 349.161,34.745 L 349.137,32.009 L 349.133,31.694 L 349.474,31.689 C 351.76,31.653 353.974,32.085 356.056,32.973 L 356.056,32.973 C 363.623,36.201 366.88,44.527 363.314,51.535 L 363.314,51.535 C 361.534,55.031 358.375,57.65 354.416,58.908 L 354.416,58.908 L 353.97,59.05 L 353.938,51.432 z M 354.649,58.148 C 358.241,56.612 360.998,54.612 362.697,51.272 L 362.697,51.272 C 366.103,44.579 362.992,36.626 355.766,33.544 L 355.766,33.544 C 353.776,32.696 352.084,32.39 349.826,32.359 L 349.826,32.359 L 349.848,34.41 L 351.572,34.436 C 353.539,34.426 355.211,35.057 356.561,36.271 L 356.561,36.271 C 357.903,37.475 358.651,39.092 358.668,40.824 L 358.668,40.824 C 358.7,44.378 355.549,47.322 351.643,47.385 L 351.643,47.385 L 345.612,47.48 C 345.109,47.489 344.638,47.677 344.286,48.01 L 344.286,48.01 C 343.938,48.339 343.748,48.773 343.752,49.23 L 343.752,49.23 C 343.761,50.179 344.61,50.936 345.644,50.92 L 345.644,50.92 C 345.641,50.919 354.653,50.681 354.653,50.681 L 354.653,50.681 C 354.654,50.681 354.649,58.148 354.649,58.148"
               style="fill:url(#radialGradient789);stroke:none"
               id="path795" />
          </g>
        </g>
      </g>
    </g>
    <g
       transform="matrix(1.25,0,0,-1.25,-226.23455,492.47683)"
       id="g797">
      <g
         id="g799">
        <g
           id="g805">
          <g
             id="g807">
            <path
               d="M 342.022,63.416 C 331.452,59.651 326.246,48.633 330.419,38.855 L 330.419,38.855 C 334.592,29.076 346.586,24.184 357.158,27.949 L 357.158,27.949 C 367.729,31.713 372.935,42.731 368.762,52.51 L 368.762,52.51 C 365.544,60.05 357.673,64.685 349.393,64.686 L 349.393,64.686 C 346.935,64.686 344.442,64.277 342.022,63.416 M 331.005,39.064 C 326.956,48.552 331.999,59.241 342.247,62.89 L 342.247,62.89 C 352.495,66.54 364.126,61.79 368.176,52.301 L 368.176,52.301 C 372.225,42.812 367.181,32.125 356.933,28.474 L 356.933,28.474 C 354.59,27.64 352.174,27.245 349.794,27.245 L 349.794,27.245 C 349.793,27.245 349.792,27.245 349.791,27.245 L 349.791,27.245 C 341.761,27.245 334.129,31.745 331.005,39.064"
               style="fill:url(#linearGradient809);stroke:none"
               id="path819" />
          </g>
        </g>
      </g>
    </g>
    <g
       transform="matrix(1.25,0,0,-1.25,-226.23455,492.47683)"
       id="g821">
      <g
         id="g823">
        <g
           id="g829">
          <g
             id="g831">
            <path
               d="M 342.701,60.997 C 333.627,57.52 329.343,47.81 333.151,39.351 L 333.151,39.351 C 334.813,35.661 337.844,32.64 341.686,30.848 L 341.686,30.848 C 346.333,28.68 351.737,28.488 356.513,30.318 L 356.513,30.318 C 361.291,32.15 364.956,35.819 366.571,40.387 L 366.571,40.387 C 367.906,44.163 367.726,48.275 366.064,51.965 L 366.064,51.965 C 363.182,58.366 356.478,62.243 349.455,62.244 L 349.455,62.244 C 347.197,62.244 344.908,61.844 342.701,60.997 M 346.781,29.83 C 345.055,30.1 343.399,30.604 341.854,31.324 L 341.854,31.324 C 338.141,33.056 335.214,35.969 333.612,39.527 L 333.612,39.527 C 332.013,43.079 331.843,47.048 333.133,50.7 L 333.133,50.7 C 334.706,55.147 338.274,58.72 342.924,60.503 L 342.924,60.503 C 345.671,61.555 348.685,61.932 351.642,61.592 L 351.642,61.592 L 351.759,61.579 L 351.755,53.553 L 346.167,53.628 C 345.776,53.623 345.399,53.564 345.034,53.506 L 345.034,53.506 C 345.034,53.505 344.81,53.471 344.81,53.471 L 344.81,53.471 C 343.216,53.227 341.89,52.36 341.171,51.093 L 341.171,51.093 C 340.618,50.117 340.489,49.019 340.807,48.001 L 340.807,48.001 L 340.936,47.652 C 341.354,46.672 342.119,46.044 342.686,45.689 L 342.686,45.689 C 343.495,45.184 344.452,44.877 345.456,44.801 L 345.456,44.801 C 345.452,44.801 351.627,44.626 351.627,44.626 L 351.627,44.626 C 353.609,44.512 355.257,43.42 355.73,41.909 L 355.73,41.909 C 356.004,41.036 355.888,40.061 355.412,39.232 L 355.412,39.232 C 354.793,38.156 353.635,37.424 352.236,37.227 L 352.236,37.227 L 351.808,37.154 C 351.569,37.109 351.364,37.071 351.129,37.062 L 351.129,37.062 C 351.121,37.062 347.08,37.12 346.965,37.121 L 346.965,37.121 C 346.964,37.004 346.902,29.811 346.902,29.811 L 346.902,29.811 L 346.781,29.83 z M 352.409,53.176 L 352.413,61.361 L 352.414,61.488 L 352.537,61.467 C 358.426,60.5 363.31,56.882 365.603,51.789 L 365.603,51.789 C 367.205,48.231 367.377,44.262 366.088,40.612 L 366.088,40.612 C 364.517,36.17 360.947,32.598 356.29,30.814 L 356.29,30.814 C 353.583,29.777 350.605,29.395 347.676,29.711 L 347.676,29.711 L 347.557,29.723 L 347.615,36.441 L 351.207,36.39 C 351.504,36.4 351.751,36.446 351.991,36.491 L 351.991,36.491 C 351.994,36.491 352.393,36.56 352.393,36.56 L 352.393,36.56 C 353.969,36.782 355.279,37.615 355.984,38.845 L 355.984,38.845 C 356.548,39.827 356.683,40.994 356.352,42.05 L 356.352,42.05 C 355.784,43.861 353.868,45.167 351.583,45.299 L 351.583,45.299 L 345.417,45.473 C 344.532,45.541 343.69,45.811 342.979,46.255 L 342.979,46.255 C 342.506,46.551 341.87,47.069 341.531,47.864 L 341.531,47.864 L 341.428,48.142 C 341.167,48.976 341.28,49.888 341.745,50.709 L 341.745,50.709 C 342.378,51.824 343.554,52.588 344.974,52.805 L 344.974,52.805 L 345.201,52.84 C 345.561,52.898 345.901,52.952 346.238,52.956 L 346.238,52.956 C 346.242,52.956 352.29,52.873 352.409,52.872 L 352.409,52.872 C 352.409,52.99 352.409,53.176 352.409,53.176"
               style="fill:url(#radialGradient833);stroke:none"
               id="path843" />
          </g>
        </g>
      </g>
    </g>
    <g
       transform="matrix(1.25,0,0,-1.25,-226.23455,492.47683)"
       id="g845">
      <g
         id="g847"
         clip-path="url(#clipPath849)">
        <g
           id="g853"
           transform="translate(387.4816,53.4692)">
          <path
             d="M 0,0 C -1.201,0 -2.155,0.778 -2.155,1.966 L -2.155,5.646 L -1.012,5.646 L -1.012,2.005 C -1.012,1.36 -0.617,0.975 0,0.975 C 0.617,0.975 1.02,1.36 1.02,2.005 L 1.02,5.646 L 2.155,5.646 L 2.155,1.966 C 2.155,0.778 1.201,0 0,0"
             style="fill:#426889;fill-opacity:1;fill-rule:nonzero;stroke:none"
             id="path855" />
        </g>
        <g
           id="g857"
           transform="translate(393.5692,53.5164)">
          <path
             d="M 0,0 L 0,2.477 C 0,3.035 -0.37,3.224 -0.708,3.224 C -1.045,3.224 -1.423,3.035 -1.423,2.477 L -1.423,0 L -2.493,0 L -2.493,4.097 L -1.448,4.097 L -1.448,3.72 C -1.168,4.003 -0.773,4.144 -0.378,4.144 C 0.049,4.144 0.395,4.01 0.633,3.782 C 0.979,3.452 1.069,3.067 1.069,2.619 L 1.069,0 L 0,0"
             style="fill:#426889;fill-opacity:1;fill-rule:nonzero;stroke:none"
             id="path859" />
        </g>
        <path
           d="M 396.037,57.613 L 397.106,57.613 L 397.106,53.516 L 396.037,53.516 L 396.037,57.613 z M 396.021,59.147 L 397.115,59.147 L 397.115,58.313 L 396.021,58.313 L 396.021,59.147 z"
           style="fill:#426889;fill-opacity:1;fill-rule:nonzero;stroke:none"
           id="path861" />
        <g
           id="g863"
           transform="translate(400.397,53.5164)">
          <path
             d="M 0,0 L -0.839,0 L -2.419,4.097 L -1.292,4.097 L -0.42,1.565 L 0.444,4.097 L 1.571,4.097 L 0,0 z"
             style="fill:#426889;fill-opacity:1;fill-rule:nonzero;stroke:none"
             id="path865" />
        </g>
        <g
           id="g867"
           transform="translate(405.1346,56.3867)">
          <path
             d="M 0,0 C -0.115,0.244 -0.354,0.425 -0.716,0.425 C -1.078,0.425 -1.316,0.244 -1.431,0 C -1.497,-0.149 -1.522,-0.26 -1.53,-0.44 L 0.099,-0.44 C 0.09,-0.26 0.066,-0.149 0,0 M -1.53,-1.14 C -1.53,-1.667 -1.193,-2.052 -0.592,-2.052 C -0.123,-2.052 0.107,-1.927 0.379,-1.667 L 1.028,-2.273 C 0.592,-2.689 0.173,-2.917 -0.6,-2.917 C -1.612,-2.917 -2.583,-2.477 -2.583,-0.818 C -2.583,0.519 -1.826,1.274 -0.716,1.274 C 0.477,1.274 1.152,0.44 1.152,-0.684 L 1.152,-1.14 L -1.53,-1.14"
             style="fill:#426889;fill-opacity:1;fill-rule:nonzero;stroke:none"
             id="path869" />
        </g>
        <g
           id="g871"
           transform="translate(409.8481,56.4968)">
          <path
             d="M 0,0 C -0.164,0.157 -0.304,0.244 -0.568,0.244 C -0.897,0.244 -1.258,0.008 -1.258,-0.511 L -1.258,-2.98 L -2.328,-2.98 L -2.328,1.117 L -1.283,1.117 L -1.283,0.723 C -1.078,0.959 -0.666,1.164 -0.206,1.164 C 0.214,1.164 0.51,1.062 0.806,0.778 L 0,0"
             style="fill:#426889;fill-opacity:1;fill-rule:nonzero;stroke:none"
             id="path873" />
        </g>
        <g
           id="g875"
           transform="translate(412.8342,53.4692)">
          <path
             d="M 0,0 C -0.674,0 -1.283,0.071 -1.826,0.59 L -1.127,1.258 C -0.773,0.92 -0.312,0.873 0.017,0.873 C 0.387,0.873 0.773,0.991 0.773,1.298 C 0.773,1.502 0.658,1.643 0.321,1.675 L -0.354,1.738 C -1.127,1.809 -1.604,2.131 -1.604,2.886 C -1.604,3.735 -0.823,4.191 0.049,4.191 C 0.716,4.191 1.275,4.081 1.686,3.712 L 1.028,3.075 C 0.781,3.287 0.403,3.35 0.033,3.35 C -0.395,3.35 -0.576,3.161 -0.576,2.957 C -0.576,2.807 -0.51,2.634 -0.132,2.603 L 0.543,2.54 C 1.39,2.461 1.818,2.029 1.818,1.337 C 1.818,0.432 1.012,0 0,0"
             style="fill:#426889;fill-opacity:1;fill-rule:nonzero;stroke:none"
             id="path877" />
        </g>
        <path
           d="M 415.795,57.613 L 416.864,57.613 L 416.864,53.516 L 415.795,53.516 L 415.795,57.613 z M 415.779,59.147 L 416.873,59.147 L 416.873,58.313 L 415.779,58.313 L 415.779,59.147 z"
           style="fill:#426889;fill-opacity:1;fill-rule:nonzero;stroke:none"
           id="path879" />
        <g
           id="g881"
           transform="translate(419.6453,53.5164)">
          <path
             d="M 0,0 C -0.872,0 -1.242,0.59 -1.242,1.172 L -1.242,3.201 L -1.695,3.201 L -1.695,3.979 L -1.242,3.979 L -1.242,5.19 L -0.173,5.19 L -0.173,3.979 L 0.584,3.979 L 0.584,3.201 L -0.173,3.201 L -0.173,1.235 C -0.173,0.999 -0.058,0.865 0.198,0.865 L 0.584,0.865 L 0.584,0 L 0,0"
             style="fill:#426889;fill-opacity:1;fill-rule:nonzero;stroke:none"
             id="path883" />
        </g>
        <g
           id="g885"
           transform="translate(423.3879,58.2661)">
          <path
             d="M 0,0 L -0.716,0 L -0.189,1.337 L 0.938,1.337 L 0,0 z M 0.428,-1.879 C 0.313,-1.636 0.074,-1.455 -0.288,-1.455 C -0.65,-1.455 -0.888,-1.636 -1.004,-1.879 C -1.069,-2.029 -1.094,-2.139 -1.102,-2.32 L 0.526,-2.32 C 0.518,-2.139 0.494,-2.029 0.428,-1.879 M -1.102,-3.02 C -1.102,-3.547 -0.765,-3.932 -0.165,-3.932 C 0.305,-3.932 0.535,-3.806 0.806,-3.547 L 1.456,-4.152 C 1.02,-4.569 0.601,-4.797 -0.173,-4.797 C -1.185,-4.797 -2.155,-4.356 -2.155,-2.697 C -2.155,-1.36 -1.398,-0.606 -0.288,-0.606 C 0.905,-0.606 1.58,-1.439 1.58,-2.564 L 1.58,-3.02 L -1.102,-3.02"
             style="fill:#426889;fill-opacity:1;fill-rule:nonzero;stroke:none"
             id="path887" />
        </g>
        <g
           id="g889"
           transform="translate(381.2834,50.2765)">
          <path
             d="M 0,0 L -1.069,0 L -1.069,-1.533 L 0,-1.533 C 0.518,-1.533 0.847,-1.227 0.847,-0.771 C 0.847,-0.315 0.518,0 0,0 M 0.058,-2.516 L -1.069,-2.516 L -1.069,-4.624 L -2.213,-4.624 L -2.213,0.975 L 0.058,0.975 C 1.267,0.975 1.991,0.181 1.991,-0.771 C 1.991,-1.722 1.267,-2.516 0.058,-2.516"
             style="fill:#426889;fill-opacity:1;fill-rule:nonzero;stroke:none"
             id="path891" />
        </g>
        <g
           id="g893"
           transform="translate(386.4905,47.3826)">
          <path
             d="M 0,0 L -0.847,0 C -1.234,0 -1.448,-0.173 -1.448,-0.464 C -1.448,-0.747 -1.25,-0.936 -0.831,-0.936 C -0.535,-0.936 -0.345,-0.912 -0.156,-0.739 C -0.041,-0.637 0,-0.472 0,-0.22 L 0,0 z M 0.025,-1.73 L 0.025,-1.376 C -0.263,-1.651 -0.535,-1.769 -1.028,-1.769 C -1.514,-1.769 -1.867,-1.651 -2.122,-1.408 C -2.353,-1.18 -2.476,-0.849 -2.476,-0.488 C -2.476,0.165 -2.007,0.7 -1.012,0.7 L 0,0.7 L 0,0.904 C 0,1.353 -0.23,1.549 -0.798,1.549 C -1.209,1.549 -1.398,1.455 -1.621,1.211 L -2.303,1.848 C -1.884,2.288 -1.473,2.414 -0.757,2.414 C 0.444,2.414 1.069,1.927 1.069,0.967 L 1.069,-1.73 L 0.025,-1.73"
             style="fill:#426889;fill-opacity:1;fill-rule:nonzero;stroke:none"
             id="path895" />
        </g>
        <g
           id="g897"
           transform="translate(391.4261,45.6526)">
          <path
             d="M 0,0 L 0,0.377 C -0.28,0.094 -0.674,-0.047 -1.069,-0.047 C -1.497,-0.047 -1.842,0.087 -2.081,0.315 C -2.426,0.645 -2.517,1.03 -2.517,1.478 L -2.517,4.097 L -1.448,4.097 L -1.448,1.62 C -1.448,1.062 -1.078,0.873 -0.74,0.873 C -0.403,0.873 -0.025,1.062 -0.025,1.62 L -0.025,4.097 L 1.045,4.097 L 1.045,0 L 0,0"
             style="fill:#426889;fill-opacity:1;fill-rule:nonzero;stroke:none"
             id="path899" />
        </g>
        <g
           id="g901"
           transform="translate(395.1278,45.6526)">
          <path
             d="M 0,0 C -0.88,0 -1.25,0.59 -1.25,1.172 L -1.25,5.599 L -0.181,5.599 L -0.181,1.235 C -0.181,0.991 -0.074,0.865 0.198,0.865 L 0.609,0.865 L 0.609,0 L 0,0"
             style="fill:#426889;fill-opacity:1;fill-rule:nonzero;stroke:none"
             id="path903" />
        </g>
        <g
           id="g905"
           transform="translate(400.6885,45.6055)">
          <path
             d="M 0,0 C -0.888,0 -1.563,0.181 -2.139,0.739 L -1.398,1.447 C -1.028,1.093 -0.527,0.975 0.017,0.975 C 0.691,0.975 1.053,1.219 1.053,1.667 C 1.053,1.864 0.995,2.029 0.872,2.139 C 0.757,2.241 0.625,2.296 0.354,2.335 L -0.354,2.43 C -0.855,2.501 -1.225,2.65 -1.489,2.894 C -1.769,3.161 -1.908,3.523 -1.908,3.995 C -1.908,4.993 -1.135,5.693 0.132,5.693 C 0.938,5.693 1.522,5.505 2.024,5.041 L 1.3,4.357 C 0.93,4.695 0.485,4.742 0.099,4.742 C -0.51,4.742 -0.806,4.419 -0.806,4.034 C -0.806,3.893 -0.757,3.743 -0.633,3.633 C -0.518,3.531 -0.329,3.444 -0.09,3.413 L 0.601,3.318 C 1.135,3.248 1.473,3.106 1.72,2.886 C 2.032,2.603 2.172,2.194 2.172,1.699 C 2.172,0.613 1.226,0 0,0"
             style="fill:#426889;fill-opacity:1;fill-rule:nonzero;stroke:none"
             id="path907" />
        </g>
        <g
           id="g909"
           transform="translate(406.274,47.3826)">
          <path
             d="M 0,0 L -0.847,0 C -1.234,0 -1.448,-0.173 -1.448,-0.464 C -1.448,-0.747 -1.25,-0.936 -0.831,-0.936 C -0.535,-0.936 -0.345,-0.912 -0.156,-0.739 C -0.041,-0.637 0,-0.472 0,-0.22 L 0,0 z M 0.025,-1.73 L 0.025,-1.376 C -0.263,-1.651 -0.535,-1.769 -1.028,-1.769 C -1.513,-1.769 -1.867,-1.651 -2.122,-1.408 C -2.353,-1.18 -2.476,-0.849 -2.476,-0.488 C -2.476,0.165 -2.007,0.7 -1.012,0.7 L 0,0.7 L 0,0.904 C 0,1.353 -0.23,1.549 -0.798,1.549 C -1.209,1.549 -1.398,1.455 -1.62,1.211 L -2.303,1.848 C -1.884,2.288 -1.472,2.414 -0.757,2.414 C 0.444,2.414 1.069,1.927 1.069,0.967 L 1.069,-1.73 L 0.025,-1.73"
             style="fill:#426889;fill-opacity:1;fill-rule:nonzero;stroke:none"
             id="path911" />
        </g>
        <g
           id="g913"
           transform="translate(410.5349,48.8768)">
          <path
             d="M 0,0 C -0.641,0 -0.724,-0.503 -0.724,-1.172 C -0.724,-1.84 -0.641,-2.351 0,-2.351 C 0.642,-2.351 0.724,-1.84 0.724,-1.172 C 0.724,-0.503 0.642,0 0,0 M 1.358,-2.902 C 1.119,-3.13 0.732,-3.271 0.313,-3.271 C -0.14,-3.271 -0.461,-3.153 -0.757,-2.839 L -0.757,-3.224 L -1.793,-3.224 L -1.793,2.375 L -0.724,2.375 L -0.724,0.511 C -0.444,0.81 -0.123,0.92 0.313,0.92 C 0.732,0.92 1.119,0.779 1.358,0.55 C 1.785,0.142 1.793,-0.558 1.793,-1.172 C 1.793,-1.785 1.785,-2.493 1.358,-2.902"
             style="fill:#426889;fill-opacity:1;fill-rule:nonzero;stroke:none"
             id="path915" />
        </g>
        <g
           id="g917"
           transform="translate(415.7669,47.3826)">
          <path
             d="M 0,0 L -0.847,0 C -1.234,0 -1.448,-0.173 -1.448,-0.464 C -1.448,-0.747 -1.251,-0.936 -0.831,-0.936 C -0.535,-0.936 -0.346,-0.912 -0.156,-0.739 C -0.041,-0.637 0,-0.472 0,-0.22 L 0,0 z M 0.024,-1.73 L 0.024,-1.376 C -0.263,-1.651 -0.535,-1.769 -1.028,-1.769 C -1.514,-1.769 -1.867,-1.651 -2.122,-1.408 C -2.353,-1.18 -2.476,-0.849 -2.476,-0.488 C -2.476,0.165 -2.007,0.7 -1.012,0.7 L 0,0.7 L 0,0.904 C 0,1.353 -0.23,1.549 -0.798,1.549 C -1.209,1.549 -1.398,1.455 -1.621,1.211 L -2.304,1.848 C -1.884,2.288 -1.473,2.414 -0.757,2.414 C 0.444,2.414 1.069,1.927 1.069,0.967 L 1.069,-1.73 L 0.024,-1.73"
             style="fill:#426889;fill-opacity:1;fill-rule:nonzero;stroke:none"
             id="path919" />
        </g>
        <g
           id="g921"
           transform="translate(419.5755,45.6526)">
          <path
             d="M 0,0 C -0.872,0 -1.242,0.59 -1.242,1.172 L -1.242,3.201 L -1.695,3.201 L -1.695,3.979 L -1.242,3.979 L -1.242,5.19 L -0.173,5.19 L -0.173,3.979 L 0.584,3.979 L 0.584,3.201 L -0.173,3.201 L -0.173,1.235 C -0.173,0.999 -0.058,0.865 0.197,0.865 L 0.584,0.865 L 0.584,0 L 0,0"
             style="fill:#426889;fill-opacity:1;fill-rule:nonzero;stroke:none"
             id="path923" />
        </g>
        <path
           d="M 421.377,49.75 L 422.446,49.75 L 422.446,45.653 L 421.377,45.653 L 421.377,49.75 z M 421.361,51.283 L 422.455,51.283 L 422.455,50.449 L 421.361,50.449 L 421.361,51.283 z"
           style="fill:#426889;fill-opacity:1;fill-rule:nonzero;stroke:none"
           id="path925" />
        <g
           id="g927"
           transform="translate(426.2547,48.5229)">
          <path
             d="M 0,0 C -0.115,0.244 -0.354,0.425 -0.716,0.425 C -1.078,0.425 -1.316,0.244 -1.431,0 C -1.497,-0.149 -1.522,-0.26 -1.53,-0.44 L 0.099,-0.44 C 0.09,-0.26 0.066,-0.149 0,0 M -1.53,-1.14 C -1.53,-1.667 -1.193,-2.052 -0.592,-2.052 C -0.123,-2.052 0.107,-1.927 0.379,-1.667 L 1.028,-2.273 C 0.592,-2.689 0.173,-2.917 -0.6,-2.917 C -1.612,-2.917 -2.583,-2.477 -2.583,-0.818 C -2.583,0.519 -1.826,1.274 -0.716,1.274 C 0.477,1.274 1.152,0.44 1.152,-0.684 L 1.152,-1.14 L -1.53,-1.14"
             style="fill:#426889;fill-opacity:1;fill-rule:nonzero;stroke:none"
             id="path929" />
        </g>
        <g
           id="g931"
           transform="translate(430.9682,48.633)">
          <path
             d="M 0,0 C -0.164,0.157 -0.304,0.244 -0.568,0.244 C -0.897,0.244 -1.258,0.008 -1.258,-0.511 L -1.258,-2.98 L -2.328,-2.98 L -2.328,1.117 L -1.283,1.117 L -1.283,0.723 C -1.078,0.959 -0.666,1.164 -0.206,1.164 C 0.214,1.164 0.51,1.062 0.806,0.778 L 0,0"
             style="fill:#426889;fill-opacity:1;fill-rule:nonzero;stroke:none"
             id="path933" />
        </g>
        <g
           id="g935"
           transform="translate(379.0314,39.7948)">
          <path
             d="M 0,0 L 52.455,0"
             style="fill:none;stroke:#c02229;stroke-width:0.419;stroke-linecap:butt;stroke-linejoin:miter;stroke-miterlimit:4;stroke-dasharray:none;stroke-opacity:1"
             id="path937" />
        </g>
        <g
           id="g939"
           transform="translate(380.3966,33.9598)">
          <path
             d="M 0,0 L 0,-3.055 L -0.551,-3.055 L -0.551,0 L -1.55,0 L -1.55,0.482 L 0.999,0.482 L 0.999,0 L 0,0 z"
             style="fill:#426889;fill-opacity:1;fill-rule:nonzero;stroke:none"
             id="path941" />
        </g>
        <g
           id="g943"
           transform="translate(385.6744,33.771)">
          <path
             d="M 0,0 C -0.128,0.134 -0.327,0.219 -0.541,0.219 C -0.755,0.219 -0.954,0.134 -1.081,0 C -1.26,-0.189 -1.295,-0.388 -1.295,-1.098 C -1.295,-1.808 -1.26,-2.007 -1.081,-2.196 C -0.954,-2.33 -0.755,-2.414 -0.541,-2.414 C -0.327,-2.414 -0.128,-2.33 0,-2.196 C 0.178,-2.007 0.214,-1.808 0.214,-1.098 C 0.214,-0.388 0.178,-0.189 0,0 M 0.418,-2.518 C 0.168,-2.762 -0.153,-2.896 -0.541,-2.896 C -0.928,-2.896 -1.244,-2.762 -1.494,-2.518 C -1.851,-2.171 -1.846,-1.778 -1.846,-1.098 C -1.846,-0.417 -1.851,-0.025 -1.494,0.323 C -1.244,0.566 -0.928,0.7 -0.541,0.7 C -0.153,0.7 0.168,0.566 0.418,0.323 C 0.775,-0.025 0.765,-0.417 0.765,-1.098 C 0.765,-1.778 0.775,-2.171 0.418,-2.518"
             style="fill:#426889;fill-opacity:1;fill-rule:nonzero;stroke:none"
             id="path945" />
        </g>
        <g
           id="g947"
           transform="translate(390.5389,30.8751)">
          <path
             d="M 0,0 C -0.739,0 -1.3,0.492 -1.3,1.222 L -1.3,3.566 L -0.749,3.566 L -0.749,1.247 C -0.749,0.775 -0.454,0.482 0,0.482 C 0.454,0.482 0.755,0.775 0.755,1.247 L 0.755,3.566 L 1.306,3.566 L 1.306,1.222 C 1.306,0.492 0.74,0 0,0"
             style="fill:#426889;fill-opacity:1;fill-rule:nonzero;stroke:none"
             id="path949" />
        </g>
        <g
           id="g951"
           transform="translate(394.7764,30.905)">
          <path
             d="M 0,0 L 0,3.537 L 0.551,3.537 L 0.551,0.482 L 2.3,0.482 L 2.3,0 L 0,0 z"
             style="fill:#426889;fill-opacity:1;fill-rule:nonzero;stroke:none"
             id="path953" />
        </g>
        <g
           id="g955"
           transform="translate(401.3033,33.771)">
          <path
             d="M 0,0 C -0.127,0.134 -0.326,0.219 -0.54,0.219 C -0.755,0.219 -0.954,0.134 -1.081,0 C -1.259,-0.189 -1.295,-0.388 -1.295,-1.098 C -1.295,-1.808 -1.259,-2.007 -1.081,-2.196 C -0.954,-2.33 -0.755,-2.414 -0.54,-2.414 C -0.326,-2.414 -0.127,-2.33 0,-2.196 C 0.178,-2.007 0.214,-1.808 0.214,-1.098 C 0.214,-0.388 0.178,-0.189 0,0 M 0.418,-2.518 C 0.168,-2.762 -0.153,-2.896 -0.54,-2.896 C -0.928,-2.896 -1.244,-2.762 -1.494,-2.518 C -1.851,-2.171 -1.846,-1.778 -1.846,-1.098 C -1.846,-0.417 -1.851,-0.025 -1.494,0.323 C -1.244,0.566 -0.928,0.7 -0.54,0.7 C -0.153,0.7 0.168,0.566 0.418,0.323 C 0.775,-0.025 0.765,-0.417 0.765,-1.098 C 0.765,-1.778 0.775,-2.171 0.418,-2.518"
             style="fill:#426889;fill-opacity:1;fill-rule:nonzero;stroke:none"
             id="path957" />
        </g>
        <g
           id="g959"
           transform="translate(406.1681,30.8751)">
          <path
             d="M 0,0 C -0.739,0 -1.3,0.492 -1.3,1.222 L -1.3,3.566 L -0.75,3.566 L -0.75,1.247 C -0.75,0.775 -0.454,0.482 0,0.482 C 0.454,0.482 0.755,0.775 0.755,1.247 L 0.755,3.566 L 1.305,3.566 L 1.305,1.222 C 1.305,0.492 0.739,0 0,0"
             style="fill:#426889;fill-opacity:1;fill-rule:nonzero;stroke:none"
             id="path961" />
        </g>
        <g
           id="g963"
           transform="translate(411.3695,30.8751)">
          <path
             d="M 0,0 C -0.546,0 -0.938,0.124 -1.285,0.467 L -0.918,0.82 C -0.653,0.561 -0.362,0.482 0.01,0.482 C 0.484,0.482 0.76,0.68 0.76,1.023 C 0.76,1.177 0.714,1.306 0.617,1.391 C 0.525,1.475 0.433,1.51 0.219,1.54 L -0.209,1.6 C -0.505,1.639 -0.74,1.738 -0.898,1.883 C -1.076,2.047 -1.163,2.27 -1.163,2.558 C -1.163,3.174 -0.704,3.596 0.051,3.596 C 0.53,3.596 0.867,3.477 1.178,3.194 L 0.826,2.856 C 0.602,3.065 0.342,3.129 0.035,3.129 C -0.393,3.129 -0.627,2.891 -0.627,2.578 C -0.627,2.449 -0.586,2.335 -0.49,2.25 C -0.398,2.171 -0.25,2.111 -0.082,2.086 L 0.331,2.027 C 0.668,1.977 0.857,1.897 1.01,1.763 C 1.208,1.594 1.305,1.341 1.305,1.038 C 1.305,0.387 0.76,0 0,0"
             style="fill:#426889;fill-opacity:1;fill-rule:nonzero;stroke:none"
             id="path965" />
        </g>
        <g
           id="g967"
           transform="translate(415.4539,30.905)">
          <path
             d="M 0,0 L 0,3.537 L 2.32,3.537 L 2.32,3.055 L 0.551,3.055 L 0.551,2.022 L 2.06,2.022 L 2.06,1.545 L 0.551,1.545 L 0.551,0.482 L 2.32,0.482 L 2.32,0 L 0,0 z"
             style="fill:#426889;fill-opacity:1;fill-rule:nonzero;stroke:none"
             id="path969" />
        </g>
        <path
           d="M 423.832,34.442 L 424.383,34.442 L 424.383,30.905 L 423.832,30.905 L 423.832,34.442 z"
           style="fill:#426889;fill-opacity:1;fill-rule:nonzero;stroke:none"
           id="path971" />
        <path
           d="M 427.371,34.442 L 427.922,34.442 L 427.922,30.905 L 427.371,30.905 L 427.371,34.442 z"
           style="fill:#426889;fill-opacity:1;fill-rule:nonzero;stroke:none"
           id="path973" />
        <path
           d="M 430.91,34.442 L 431.46,34.442 L 431.46,30.905 L 430.91,30.905 L 430.91,34.442 z"
           style="fill:#426889;fill-opacity:1;fill-rule:nonzero;stroke:none"
           id="path975" />
      </g>
    </g>
  </g>
</svg>
